<svg width="1440" height="960" viewBox="0 0 1440 960" fill="none" xmlns="http://www.w3.org/2000/svg">
  <rect width="1440" height="960" fill="#070A12"/>
  <circle cx="1180" cy="120" r="420" fill="#00E5FF" fill-opacity=".12"/>
  <circle cx="230" cy="820" r="360" fill="#E11D48" fill-opacity=".14"/>
  <rect x="54" y="44" width="284" height="872" rx="30" fill="#0C1220" stroke="#22304A"/>
  <rect x="86" y="76" width="44" height="44" rx="13" fill="#E11D48"/>
  <text x="148" y="106" fill="#F8FAFC" font-family="Arial, sans-serif" font-size="26" font-weight="800">BidCard TH</text>
  <text x="86" y="178" fill="#94A3B8" font-family="Arial, sans-serif" font-size="14">ADMIN COMMAND</text>
  <g fill="#111827" stroke="#26344F">
    <rect x="82" y="214" width="220" height="52" rx="16"/>
    <rect x="82" y="280" width="220" height="52" rx="16"/>
    <rect x="82" y="346" width="220" height="52" rx="16"/>
    <rect x="82" y="412" width="220" height="52" rx="16"/>
    <rect x="82" y="478" width="220" height="52" rx="16"/>
    <rect x="82" y="544" width="220" height="52" rx="16"/>
  </g>
  <text x="114" y="247" fill="#F8FAFC" font-family="Arial, sans-serif" font-size="16" font-weight="700">ภาพรวม</text>
  <text x="114" y="313" fill="#94A3B8" font-family="Arial, sans-serif" font-size="16">คลังการ์ด</text>
  <text x="114" y="379" fill="#94A3B8" font-family="Arial, sans-serif" font-size="16">ประมูล</text>
  <text x="114" y="445" fill="#94A3B8" font-family="Arial, sans-serif" font-size="16">คำสั่งซื้อ</text>
  <text x="114" y="511" fill="#94A3B8" font-family="Arial, sans-serif" font-size="16">แจ้งเตือน/อีเมล</text>
  <text x="114" y="577" fill="#94A3B8" font-family="Arial, sans-serif" font-size="16">SLA Moderation</text>
  <text x="390" y="96" fill="#F8FAFC" font-family="Arial, sans-serif" font-size="42" font-weight="900">Command Center</text>
  <text x="390" y="132" fill="#94A3B8" font-family="Arial, sans-serif" font-size="18">Realtime marketplace operations dashboard with SLA queues and wallet escrow.</text>
  <rect x="390" y="176" width="220" height="132" rx="24" fill="#0C1220" stroke="#22304A"/>
  <text x="418" y="225" fill="#94A3B8" font-family="Arial, sans-serif" font-size="15">สมาชิก</text>
  <text x="418" y="266" fill="#F8FAFC" font-family="Arial, sans-serif" font-size="42" font-weight="900">1,204</text>
  <rect x="638" y="176" width="220" height="132" rx="24" fill="#0C1220" stroke="#22304A"/>
  <text x="666" y="225" fill="#94A3B8" font-family="Arial, sans-serif" font-size="15">ประมูล Active</text>
  <text x="666" y="266" fill="#00E5FF" font-family="Arial, sans-serif" font-size="42" font-weight="900">153</text>
  <rect x="886" y="176" width="220" height="132" rx="24" fill="#0C1220" stroke="#22304A"/>
  <text x="914" y="225" fill="#94A3B8" font-family="Arial, sans-serif" font-size="15">Refund Pending</text>
  <text x="914" y="266" fill="#FACC15" font-family="Arial, sans-serif" font-size="42" font-weight="900">8</text>
  <rect x="1134" y="176" width="220" height="132" rx="24" fill="#0C1220" stroke="#22304A"/>
  <text x="1162" y="225" fill="#94A3B8" font-family="Arial, sans-serif" font-size="15">SLA Alerts</text>
  <text x="1162" y="266" fill="#E11D48" font-family="Arial, sans-serif" font-size="42" font-weight="900">12</text>
  <rect x="390" y="348" width="612" height="452" rx="30" fill="#0C1220" stroke="#22304A"/>
  <text x="424" y="402" fill="#F8FAFC" font-family="Arial, sans-serif" font-size="26" font-weight="800">Auction Operations</text>
  <g stroke="#22304A">
    <line x1="424" y1="450" x2="966" y2="450"/>
    <line x1="424" y1="520" x2="966" y2="520"/>
    <line x1="424" y1="590" x2="966" y2="590"/>
    <line x1="424" y1="660" x2="966" y2="660"/>
    <line x1="424" y1="730" x2="966" y2="730"/>
  </g>
  <text x="424" y="492" fill="#F8FAFC" font-family="Arial, sans-serif" font-size="16">Yamato SEC</text>
  <text x="806" y="492" fill="#00E5FF" font-family="Arial, sans-serif" font-size="16">00:04:59</text>
  <text x="424" y="562" fill="#F8FAFC" font-family="Arial, sans-serif" font-size="16">Mihawk SR</text>
  <text x="806" y="562" fill="#FACC15" font-family="Arial, sans-serif" font-size="16">Payment Due</text>
  <text x="424" y="632" fill="#F8FAFC" font-family="Arial, sans-serif" font-size="16">Luffy SP</text>
  <text x="806" y="632" fill="#E11D48" font-family="Arial, sans-serif" font-size="16">Outbid Alert</text>
  <rect x="1034" y="348" width="320" height="452" rx="30" fill="#0C1220" stroke="#22304A"/>
  <text x="1066" y="402" fill="#F8FAFC" font-family="Arial, sans-serif" font-size="26" font-weight="800">SLA Queue</text>
  <rect x="1066" y="440" width="256" height="74" rx="18" fill="#111827" stroke="#E11D48" stroke-opacity=".5"/>
  <text x="1092" y="484" fill="#F8FAFC" font-family="Arial, sans-serif" font-size="15">ผู้ซื้อไม่ชำระเงิน</text>
  <rect x="1066" y="536" width="256" height="74" rx="18" fill="#111827" stroke="#FACC15" stroke-opacity=".5"/>
  <text x="1092" y="580" fill="#F8FAFC" font-family="Arial, sans-serif" font-size="15">ร้านค้าส่งล่าช้า</text>
  <rect x="1066" y="632" width="256" height="74" rx="18" fill="#111827" stroke="#00E5FF" stroke-opacity=".5"/>
  <text x="1092" y="676" fill="#F8FAFC" font-family="Arial, sans-serif" font-size="15">Email outbox pending</text>
</svg>
